<svg width="560.45966" height="651.81364" xmlns="http://www.w3.org/2000/svg" data-name="Layer 1">

 <g>
  <title>Layer 1</title>
  <path id="svg_2" fill="#2f2e41" d="m578.71192,371.53974a6.96559,6.96559 0 0 1 5.39414,0.14084l35.831,19.812a17.46934,17.46934 0 0 1 7.25338,22.95166l-0.44889,-0.21865l0.44928,0.21893a17.48361,17.48361 0 0 1 -21.47644,8.84216l-38.859,-13.582a6.99947,6.99947 0 0 1 -3.5732,-9.237l11.55364,-25.23064a7.03706,7.03706 0 0 1 0.74314,-1.2945a6.95794,6.95794 0 0 1 3.13295,-2.4028z"/>
  <path id="svg_4" fill="#20344e" d="m654.58771,644.81364l0,-123.01367a7.00786,7.00786 0 0 1 7,-7l14.75928,0a7.00786,7.00786 0 0 1 7,7l0,123.01367a7.00787,7.00787 0 0 1 -7,7l-14.75928,0a7.00787,7.00787 0 0 1 -7,-7z"/>
  <path id="svg_5" fill="#20344e" d="m622.58771,644.81364l0,-123.01367a7.00786,7.00786 0 0 1 7,-7l14.75928,0a7.00786,7.00786 0 0 1 7,7l0,123.01367a7.00787,7.00787 0 0 1 -7,7l-14.75928,0a7.00787,7.00787 0 0 1 -7,-7z"/>
  <path id="svg_6" fill="#2f2e41" d="m662.27931,331.80382l0.05567,-2c-3.72071,-0.10352 -7.001,-0.33692 -9.46583,-2.1377a6.148,6.148 0 0 1 -2.38132,-4.5283a3.51435,3.51435 0 0 1 1.15283,-2.89453c1.63623,-1.38183 4.269,-0.93457 6.188,-0.05469l1.65478,0.75879l-3.17334,-23.19043l-1.98144,0.27149l2.69922,19.72656c-2.60743,-0.7666 -5.02344,-0.43652 -6.67823,0.96094a5.471,5.471 0 0 0 -1.86035,4.49219a8.13264,8.13264 0 0 0 3.2002,6.07324c3.16696,2.31444 7.28268,2.42966 10.58981,2.52244z"/>
  <rect id="svg_7" fill="#2f2e41" height="2" width="10.77148" y="299.72959" x="633.75783"/>
  <rect id="svg_8" fill="#2f2e41" height="2" width="10.77148" y="299.72959" x="667.75783"/>
  <path id="svg_13" fill="#2f2e41" d="m693.15247,246.61157c-4.30291,-16.10736 6.92623,-32.87153 22.18366,-37.90167a43.58532,43.58532 0 0 1 26.84,0.29943a52.9419,52.9419 0 0 1 22.11841,14.44056c13.37427,14.22833 19.299,33.43205 22.07122,52.36571c2.86236,19.54929 1.247,40.96059 11.25028,58.72519c4.14738,7.36522 10.3033,13.81434 18.25719,16.98577c7.42015,2.95861 16.30971,2.9725 23.41867,-0.87294a22.458,22.458 0 0 0 4.70549,-3.437c1.40713,-1.32778 -0.71706,-3.44639 -2.12132,-2.12132c-5.95279,5.61708 -14.82531,6.67662 -22.47648,4.47236c-8.34538,-2.40426 -14.76863,-8.81808 -19.00146,-16.2035c-4.89491,-8.54061 -6.93322,-18.30285 -8.04481,-27.98892c-1.21346,-10.57366 -1.681,-21.20427 -3.30151,-31.73482c-2.92281,-18.99328 -9.23825,-38.05862 -22.63595,-52.31188a56.3627,56.3627 0 0 0 -22.27491,-14.82068a47.22383,47.22383 0 0 0 -27.27767,-1.37732a37.20289,37.20289 0 0 0 -20.50635,13.79a34.67929,34.67929 0 0 0 -7.07262,22.53589a30.61611,30.61611 0 0 0 0.97529,5.95259a1.50128,1.50128 0 0 0 2.89284,-0.79752l0.00003,0.00007z"/>
  <path id="svg_14" fill="#ccc" d="m129.25977,405l-87.25977,0a17.01917,17.01917 0 0 1 -17,-17l0,-349a17.01917,17.01917 0 0 1 17,-17l236.68091,0l43.31909,38.67822l0,70.32178l-2,0l0,-69.42627l-42.08227,-37.57373l-235.91773,0a15.017,15.017 0 0 0 -15,15l0,349a15.017,15.017 0 0 0 15,15l87.25977,0l0,2z"/>
  <path id="svg_15" fill="#ccc" d="m321,62l-27,0a17.01917,17.01917 0 0 1 -17,-17l0,-22a1,1 0 1 1 2,0l0,22a15.017,15.017 0 0 0 15,15l27,0a1,1 0 0 1 0,2z"/>
  <path id="svg_16" fill="#e6e6e6" d="m287.54004,112.5l-228,0a8,8 0 0 0 0,16l228,0a8,8 0 0 0 0,-16z"/>
  <path id="svg_17" fill="#e6e6e6" d="m172.54004,78.5l-113,0a8,8 0 0 0 0,16l113,0a8,8 0 0 0 0,-16z"/>
  <path id="svg_18" fill="#e6e6e6" d="m59.54004,179.5a8,8 0 0 0 0,16l71.46,0l0,-16l-71.46,0z"/>
  <path id="svg_19" fill="#e6e6e6" d="m59.54004,145.5a8,8 0 1 0 0,16l71.46,0l0,-16l-71.46,0z"/>
  <path id="svg_20" fill="#e6e6e6" d="m131.5,349l-64.04,0a16.51867,16.51867 0 0 1 -16.5,-16.5l0,-84a16.51868,16.51868 0 0 1 16.5,-16.5l64.04,0l0,117z"/>
  <path id="svg_21" fill="#ccc" d="m234.75977,512.5l-87.25977,0a17.01917,17.01917 0 0 1 -17,-17l0,-349a17.01917,17.01917 0 0 1 17,-17l236.68091,0l43.31909,38.67822l0,66.32178l-2,0l0,-65.42627l-42.08227,-37.57373l-235.91773,0a15.017,15.017 0 0 0 -15,15l0,349a15.017,15.017 0 0 0 15,15l87.25977,0l0,2z"/>
  <path id="svg_22" fill="#ccc" d="m426.5,169.5l-27,0a17.01917,17.01917 0 0 1 -17,-17l0,-22a1,1 0 1 1 2,0l0,22a15.017,15.017 0 0 0 15,15l27,0a1,1 0 0 1 0,2z"/>
  <path id="svg_23" fill="#e6e6e6" d="m393.04004,220l-228,0a8,8 0 0 0 0,16l228,0a8,8 0 0 0 0,-16z"/>
  <path id="svg_24" fill="#e6e6e6" d="m278.04004,186l-113,0a8,8 0 0 0 0,16l113,0a8,8 0 0 0 0,-16z"/>
  <path id="svg_25" fill="#e6e6e6" d="m393.04004,220l-228,0a8,8 0 0 0 0,16l228,0a8,8 0 0 0 0,-16z"/>
  <path id="svg_26" fill="#e6e6e6" d="m278.04004,186l-113,0a8,8 0 0 0 0,16l113,0a8,8 0 0 0 0,-16z"/>
  <path id="svg_27" fill="#e6e6e6" d="m165.04004,287a8,8 0 0 0 0,16l71.46,0l0,-16l-71.46,0z"/>
  <path id="svg_28" fill="#e6e6e6" d="m165.04004,253a8,8 0 0 0 0,16l71.46,0l0,-16l-71.46,0z"/>
  <path id="svg_29" fill="#e6e6e6" d="m165.04004,287a8,8 0 0 0 0,16l71.46,0l0,-16l-71.46,0z"/>
  <path id="svg_30" fill="#e6e6e6" d="m165.04004,253a8,8 0 0 0 0,16l71.46,0l0,-16l-71.46,0z"/>
  <path id="svg_31" fill="#e6e6e6" d="m237,456.5l-64.04,0a16.51867,16.51867 0 0 1 -16.5,-16.5l0,-84a16.51868,16.51868 0 0 1 16.5,-16.5l64.04,0l0,117z"/>
  <path id="svg_32" fill="#7f7f7f" d="m242.64014,238a16.99409,16.99409 0 0 0 -8.14014,14.5l0,2.5l2,0l0,-2.5a15.02721,15.02721 0 0 1 11.1499,-14.5l-5.00976,0zm245.54,-2.5l-236.68014,0a17.01989,17.01989 0 0 0 -17,17l0,349a17.0241,17.0241 0 0 0 17,17l263,0a17.0241,17.0241 0 0 0 17,-17l0,-327.32l-43.31986,-38.68zm41.31982,366a15.01828,15.01828 0 0 1 -15,15l-263,0a15.01828,15.01828 0 0 1 -15,-15l0,-349a15.02721,15.02721 0 0 1 11.1499,-14.5a14.83265,14.83265 0 0 1 3.8501,-0.5l235.91996,0l42.08008,37.57l-0.00004,326.43zm-286.85986,-363.5a16.99409,16.99409 0 0 0 -8.14014,14.5l0,2.5l2,0l0,-2.5a15.02721,15.02721 0 0 1 11.1499,-14.5l-5.00976,0z"/>
  <path style="vector-effect: non-scaling-stroke;" id="svg_33" fill="#7f7f7f" d="m530.5,275.5l-27,0a17.01917,17.01917 0 0 1 -17,-17l0,-22a1,1 0 0 1 2,0l0,22a15.017,15.017 0 0 0 15,15l27,0a1,1 0 0 1 0,2z"/>
  <path id="svg_34" fill="#7f7f7f" d="m497.04137,342l-228,0a8,8 0 1 1 0,-16l228,0a8,8 0 0 1 0,16z"/>
  <path id="svg_35" fill="#ccc" d="m382.04137,308l-113,0a8,8 0 1 1 0,-16l113,0a8,8 0 0 1 0,16z"/>
  <path id="svg_36" fill="#7f7f7f" d="m497.04137,409l-228,0a8,8 0 1 1 0,-16l228,0a8,8 0 0 1 0,16z"/>
  <path id="svg_37" fill="#ccc" d="m382.04137,375l-113,0a8,8 0 1 1 0,-16l113,0a8,8 0 0 1 0,16z"/>
  <path id="svg_38" fill="#7f7f7f" d="m491.5,557l-212,0a16.51867,16.51867 0 0 1 -16.5,-16.5l0,-84a16.51868,16.51868 0 0 1 16.5,-16.5l212,0a16.51867,16.51867 0 0 1 16.5,16.5l0,84a16.51866,16.51866 0 0 1 -16.5,16.5z"/>
 </g>
</svg>